# xmcd
#
# Track frame offsets: 
#        150
#        11757
#        23484
#        36604
#        49426
#        63380
#        76626
#        86657
#        96643
#        111378
#        124027
#        137067
#        150042
#        163118
#        175690
#        186753
#        200722
#        213350
#        225511
#        239926
#        254777
#        268532
#        283419
#
# Disc length: 3965 seconds
#
# Revision: 0
# Processed by: cddbd v1.5.2PL0 Copyright (c) Steve Scherf et al.
# Submitted via: ExactAudioCopy v0.95b3
#
DISCID=540f7b17
DTITLE=Billie Holiday  - Volume 06 1938 Complete Edition
DYEAR=1900
DGENRE=
TTITLE0=Havin' Myself A Time
TTITLE1=Havin' Myself A Time
TTITLE2=Says Me Haert
TTITLE3=Says Me Heart
TTITLE4=I Wish I Had You
TTITLE5=I Wish I Had You
TTITLE6=I'm Gonna Lock My Heart
TTITLE7=I'm Gonna Lock My Heart
TTITLE8=Any Old Time
TTITLE9=The Very Thought Of You
TTITLE10=I Can't Get Started
TTITLE11=I Can't Get Started
TTITLE12=I've Got A Date With A Dream
TTITLE13=I've Got A Date With A Dream
TTITLE14=You Can't Be Mine
TTITLE15=Everybody's Laughing
TTITLE16=Here It Is To-Morrow Again
TTITLE17=Say It With A Kiss
TTITLE18=April In My Heart
TTITLE19=April In My Heart
TTITLE20=I'll Never Fail You
TTITLE21=They Say
TTITLE22=They Say
EXTD=
EXTT0=
EXTT1=
EXTT2=
EXTT3=
EXTT4=
EXTT5=
EXTT6=
EXTT7=
EXTT8=
EXTT9=
EXTT10=
EXTT11=
EXTT12=
EXTT13=
EXTT14=
EXTT15=
EXTT16=
EXTT17=
EXTT18=
EXTT19=
EXTT20=
EXTT21=
EXTT22=
PLAYORDER=
